<svg version="1.1" id="Layer_1" xmlns="http://www.w3.org/2000/svg" xmlns:xlink="http://www.w3.org/1999/xlink" x="0px" y="0px"
	 width="100%" viewBox="0 0 221 228" enable-background="new 0 0 221 228" xml:space="preserve">
<path fill="#FFFFFF" opacity="1.000000" stroke="none" 
	d="
M100.000000,229.000000 
	C67.073814,229.000000 34.147633,229.000000 1.000000,229.000000 
	C1.000000,196.979446 1.000000,164.958374 1.336815,132.670593 
	C5.657306,157.939743 16.109518,180.121857 35.187546,198.197159 
	C36.801598,196.670410 37.979393,195.556320 39.337418,194.271744 
	C38.054714,192.876617 36.944511,191.668549 35.833702,190.461044 
	C12.744182,165.361237 3.113227,135.811172 8.344728,102.157616 
	C18.382639,37.585064 85.619789,-1.869666 146.923462,20.491257 
	C151.118759,22.021521 153.349731,21.162086 155.213104,17.272036 
	C135.293076,8.380176 114.720192,6.504535 93.522820,9.686954 
	C50.387512,16.162977 13.972438,50.114227 3.950844,93.151878 
	C3.027915,97.115379 1.986433,101.051285 1.000000,105.000000 
	C1.000000,70.385696 1.000000,35.771385 1.000000,1.000000 
	C62.687473,1.000000 124.375076,1.000000 186.378937,1.322623 
	C181.644196,4.761575 176.567139,7.836793 171.552933,11.011251 
	C168.973862,12.644037 168.422318,14.971962 169.247269,17.921728 
	C170.388092,22.000998 171.234207,26.162687 172.206512,30.289082 
	C171.993835,30.352880 171.781143,30.416679 171.568451,30.480480 
	C169.441101,26.630619 167.313736,22.780758 164.497375,17.684015 
	C158.688812,23.296505 153.429214,28.243851 148.401688,33.416779 
	C147.811707,34.023834 148.313187,35.921120 148.628448,37.137402 
	C149.777237,41.569271 151.061707,45.965969 152.295029,50.375923 
	C151.927124,50.537579 151.559219,50.699230 151.191315,50.860886 
	C148.666290,46.683121 146.141266,42.505356 143.367065,37.915325 
	C139.795853,42.030003 136.528763,45.993027 133.033752,49.743679 
	C131.061340,51.860378 130.725174,53.720558 132.125137,56.348995 
	C134.175858,60.199207 135.798294,64.277534 137.603241,68.258652 
	C137.176636,68.472069 136.750046,68.685493 136.323441,68.898911 
	C133.557266,64.633293 130.791092,60.367672 127.768021,55.705914 
	C125.017708,59.535809 122.344795,62.725674 120.347313,66.293671 
	C119.513626,67.782837 119.562347,70.284241 120.190414,71.957283 
	C121.246346,74.770058 123.085732,77.288719 124.595520,79.931114 
	C124.264771,80.126396 123.934029,80.321686 123.603287,80.516968 
	C121.221062,77.686333 118.838837,74.855698 116.021210,71.507698 
	C113.659302,75.421410 110.266632,78.767334 109.793671,82.484734 
	C109.345703,86.005699 111.959755,89.916237 113.227165,93.655449 
	C113.034248,93.775322 112.841331,93.895195 112.648415,94.015068 
	C110.805313,91.600357 108.962212,89.185646 107.277740,86.978767 
	C100.306931,91.489883 104.055122,96.522415 105.562218,101.584557 
	C104.202644,99.878914 102.843079,98.173279 101.116074,96.006676 
	C99.670143,98.840652 98.657135,101.297012 97.248062,103.500038 
	C92.926910,110.255913 90.782333,117.108131 95.323540,124.732658 
	C94.980247,125.016953 94.846397,125.134819 94.431931,125.067963 
	C88.491447,118.607185 88.654816,118.705246 84.371056,125.841797 
	C81.118103,131.261063 79.788208,136.467651 83.691833,142.093613 
	C90.194305,151.465073 90.447479,154.091278 82.225281,162.228180 
	C68.384193,175.925644 53.931274,189.004379 39.768764,202.378372 
	C38.463619,203.610825 37.396431,205.095261 36.218754,206.462708 
	C36.557781,206.851685 36.896812,207.240662 37.235840,207.629639 
	C39.747440,205.912827 42.352886,204.317581 44.756939,202.461472 
	C107.796776,153.789749 153.745041,92.200211 183.529633,18.461174 
	C185.806595,12.823961 187.197327,6.828786 189.000000,1.000000 
	C199.965012,1.000000 210.930038,1.000000 222.000000,1.000000 
	C222.000000,35.687496 222.000000,70.375092 221.657349,105.336807 
	C218.083206,82.271706 209.043930,61.653530 194.952026,46.297504 
	C192.894409,47.550892 191.118515,48.632675 189.342606,49.714458 
	C189.012131,49.450871 188.681641,49.187279 188.351166,48.923691 
	C189.450562,49.050533 190.549973,49.177380 192.175980,49.364983 
	C189.119370,54.593372 189.626953,61.767002 180.402420,62.948921 
	C183.331451,64.435799 184.660065,65.110245 186.053253,65.817474 
	C183.938095,70.531563 181.555191,74.795013 180.095520,79.354042 
	C178.161377,85.395035 171.351074,82.923653 167.478592,87.365295 
	C170.384750,87.787964 172.535034,88.100700 175.611267,88.548103 
	C168.167526,97.405762 166.224274,110.970795 150.735657,111.019417 
	C150.964462,111.466972 151.193253,111.914536 151.422043,112.362091 
	C153.849152,112.362091 156.276260,112.362091 159.589005,112.362091 
	C157.487808,115.176285 156.220901,118.526535 153.879730,119.662201 
	C149.102554,121.979523 143.746964,123.104439 137.280716,125.146553 
	C141.924347,125.146553 145.256607,125.146553 149.663757,125.146553 
	C145.759705,129.929565 142.815689,134.163452 139.239990,137.771286 
	C133.769043,143.291412 130.063477,152.052155 119.523582,149.900131 
	C120.940575,150.706177 122.357567,151.512222 123.974983,152.432297 
	C118.683250,158.159760 111.886482,160.471359 105.300797,159.260010 
	C101.088081,158.485138 98.860390,159.157074 96.310745,161.685074 
	C91.462326,166.492340 86.843979,171.560516 81.727249,176.062485 
	C69.881927,186.484589 57.796326,196.633621 45.610931,207.062164 
	C55.582466,214.603561 66.707939,220.450806 78.944054,223.995270 
	C85.865196,226.000137 92.975113,227.353302 100.000000,229.000000 
z"/>
<path fill="#000000" opacity="1.000000" stroke="none" 
	d="
M100.468636,229.000000 
	C92.975113,227.353302 85.865196,226.000137 78.944054,223.995270 
	C66.707939,220.450806 55.582466,214.603561 45.610931,207.062164 
	C57.796326,196.633621 69.881927,186.484589 81.727249,176.062485 
	C86.843979,171.560516 91.462326,166.492340 96.310745,161.685074 
	C98.860390,159.157074 101.088081,158.485138 105.300797,159.260010 
	C111.886482,160.471359 118.683250,158.159760 123.974983,152.432297 
	C122.357567,151.512222 120.940575,150.706177 119.523582,149.900131 
	C130.063477,152.052155 133.769043,143.291412 139.239990,137.771286 
	C142.815689,134.163452 145.759705,129.929565 149.663757,125.146553 
	C145.256607,125.146553 141.924347,125.146553 137.280716,125.146553 
	C143.746964,123.104439 149.102554,121.979523 153.879730,119.662201 
	C156.220901,118.526535 157.487808,115.176285 159.589005,112.362091 
	C156.276260,112.362091 153.849152,112.362091 151.422043,112.362091 
	C151.193253,111.914536 150.964462,111.466972 150.735657,111.019417 
	C166.224274,110.970795 168.167526,97.405762 175.611267,88.548103 
	C172.535034,88.100700 170.384750,87.787964 167.478592,87.365295 
	C171.351074,82.923653 178.161377,85.395035 180.095520,79.354042 
	C181.555191,74.795013 183.938095,70.531563 186.053253,65.817474 
	C184.660065,65.110245 183.331451,64.435799 180.402420,62.948921 
	C189.626953,61.767002 189.119370,54.593372 192.175980,49.364983 
	C190.549973,49.177380 189.450562,49.050533 188.351166,48.923691 
	C188.681641,49.187279 189.012131,49.450871 189.342606,49.714458 
	C191.118515,48.632675 192.894409,47.550892 194.952026,46.297504 
	C209.043930,61.653530 218.083206,82.271706 221.657349,105.805466 
	C222.000000,114.020897 222.000000,122.041801 221.650177,130.716553 
	C213.846039,178.528687 187.492523,209.692719 142.126816,224.599289 
	C136.238312,226.534149 130.049637,227.555511 124.000000,229.000000 
	C116.312424,229.000000 108.624847,229.000000 100.468636,229.000000 
z"/>
<path fill="#000000" opacity="1.000000" stroke="none" 
	d="
M95.532982,124.566223 
	C90.782333,117.108131 92.926910,110.255913 97.248062,103.500038 
	C98.657135,101.297012 99.670143,98.840652 101.116074,96.006676 
	C102.843079,98.173279 104.202644,99.878914 105.562218,101.584557 
	C104.055122,96.522415 100.306931,91.489883 107.277740,86.978767 
	C108.962212,89.185646 110.805313,91.600357 112.648415,94.015068 
	C112.841331,93.895195 113.034248,93.775322 113.227165,93.655449 
	C111.959755,89.916237 109.345703,86.005699 109.793671,82.484734 
	C110.266632,78.767334 113.659302,75.421410 116.021210,71.507698 
	C118.838837,74.855698 121.221062,77.686333 123.603287,80.516968 
	C123.934029,80.321686 124.264771,80.126396 124.595520,79.931114 
	C123.085732,77.288719 121.246346,74.770058 120.190414,71.957283 
	C119.562347,70.284241 119.513626,67.782837 120.347313,66.293671 
	C122.344795,62.725674 125.017708,59.535809 127.768021,55.705914 
	C130.791092,60.367672 133.557266,64.633293 136.323441,68.898911 
	C136.750046,68.685493 137.176636,68.472069 137.603241,68.258652 
	C135.798294,64.277534 134.175858,60.199207 132.125137,56.348995 
	C130.725174,53.720558 131.061340,51.860378 133.033752,49.743679 
	C136.528763,45.993027 139.795853,42.030003 143.367065,37.915325 
	C146.141266,42.505356 148.666290,46.683121 151.191315,50.860886 
	C151.559219,50.699230 151.927124,50.537579 152.295029,50.375923 
	C151.061707,45.965969 149.777237,41.569271 148.628448,37.137402 
	C148.313187,35.921120 147.811707,34.023834 148.401688,33.416779 
	C153.429214,28.243851 158.688812,23.296505 164.497375,17.684015 
	C167.313736,22.780758 169.441101,26.630619 171.568451,30.480480 
	C171.781143,30.416679 171.993835,30.352880 172.206512,30.289082 
	C171.234207,26.162687 170.388092,22.000998 169.247269,17.921728 
	C168.422318,14.971962 168.973862,12.644037 171.552933,11.011251 
	C176.567139,7.836793 181.644196,4.761575 186.847595,1.322623 
	C187.444443,1.000000 187.888901,1.000000 188.666672,1.000000 
	C187.197327,6.828786 185.806595,12.823961 183.529633,18.461174 
	C153.745041,92.200211 107.796776,153.789749 44.756939,202.461472 
	C42.352886,204.317581 39.747440,205.912827 37.235840,207.629639 
	C36.896812,207.240662 36.557781,206.851685 36.218754,206.462708 
	C37.396431,205.095261 38.463619,203.610825 39.768764,202.378372 
	C53.931274,189.004379 68.384193,175.925644 82.225281,162.228180 
	C90.447479,154.091278 90.194305,151.465073 83.691833,142.093613 
	C79.788208,136.467651 81.118103,131.261063 84.371056,125.841797 
	C88.654816,118.705246 88.491447,118.607185 94.509583,125.347809 
	C95.139732,126.059143 95.411629,126.305901 95.683517,126.552666 
	C95.633339,125.890518 95.583160,125.228371 95.532982,124.566223 
z"/>
<path fill="#FFFFFF" opacity="1.000000" stroke="none" 
	d="
M124.468658,229.000000 
	C130.049637,227.555511 136.238312,226.534149 142.126816,224.599289 
	C187.492523,209.692719 213.846039,178.528687 221.650177,131.185211 
	C222.000000,163.593597 222.000000,196.187180 222.000000,229.000000 
	C189.646103,229.000000 157.291702,229.000000 124.468658,229.000000 
z"/>
<path fill="#000000" opacity="1.000000" stroke="none" 
	d="
M1.000000,105.468658 
	C1.986433,101.051285 3.027915,97.115379 3.950844,93.151878 
	C13.972438,50.114227 50.387512,16.162977 93.522820,9.686954 
	C114.720192,6.504535 135.293076,8.380176 155.213104,17.272036 
	C153.349731,21.162086 151.118759,22.021521 146.923462,20.491257 
	C85.619789,-1.869666 18.382639,37.585064 8.344728,102.157616 
	C3.113227,135.811172 12.744182,165.361237 35.833702,190.461044 
	C36.944511,191.668549 38.054714,192.876617 39.337418,194.271744 
	C37.979393,195.556320 36.801598,196.670410 35.187546,198.197159 
	C16.109518,180.121857 5.657306,157.939743 1.336815,132.201935 
	C1.000000,123.312439 1.000000,114.624870 1.000000,105.468658 
z"/>
<path fill="#FFFFFF" opacity="1.000000" stroke="none" 
	d="
M95.323540,124.732658 
	C95.583160,125.228371 95.633339,125.890518 95.683517,126.552666 
	C95.411629,126.305901 95.139732,126.059143 94.790192,125.532539 
	C94.846397,125.134819 94.980247,125.016953 95.323540,124.732658 
z"/>
</svg>